<svg xmlns="http://www.w3.org/2000/svg" width="18.5" height="15" viewBox="0 0 18.5 15"><defs><style>.a{fill:#fff;}</style></defs><path class="a" d="M16.6,51.82c.012.164.012.328.012.492A10.7,10.7,0,0,1,5.822,63.082,10.728,10.728,0,0,1,0,61.383a7.857,7.857,0,0,0,.916.047,7.6,7.6,0,0,0,4.707-1.617,3.8,3.8,0,0,1-3.545-2.625,4.789,4.789,0,0,0,.716.059,4.017,4.017,0,0,0,1-.129A3.787,3.787,0,0,1,.751,53.4v-.047a3.823,3.823,0,0,0,1.714.48,3.787,3.787,0,0,1-1.174-5.063,10.783,10.783,0,0,0,7.818,3.961,4.266,4.266,0,0,1-.094-.867,3.8,3.8,0,0,1,6.562-2.59,7.473,7.473,0,0,0,2.406-.914,3.776,3.776,0,0,1-1.667,2.086,7.611,7.611,0,0,0,2.183-.586A8.143,8.143,0,0,1,16.6,51.82Z" transform="translate(0 -48.082)"/></svg>