<svg xmlns="http://www.w3.org/2000/svg" width="441.999" height="410.851" viewBox="0 0 441.999 410.851">
  <g id="hero_logo" transform="translate(-93.251 -112.702)">
    <path id="パス_84" data-name="パス 84" d="M448.507,147.9a21.5,21.5,0,0,0-20.493,15.059L310.249,150.543c.043-.464.068-.934.068-1.41a14.924,14.924,0,0,0-1.193-5.863l32.945-14.986a10.874,10.874,0,1,0-.4-.965l-34.278,12.924A14.969,14.969,0,1,0,310.1,151.69l116.963,18.991q.059,1.046.213,2.063c-31.365,5.1-90.312,14.668-126.715,20.577a30.232,30.232,0,0,0-29-20.986c-16.735,0-30.3,13.243-30.3,29.581s13.566,29.58,30.3,29.58a30.443,30.443,0,0,0,25.928-14.262L350.027,247.9a40.445,40.445,0,1,0,9.18-19.818L300.57,210.465a28.829,28.829,0,0,0,1.179-6.051l125.887-29.853A21.494,21.494,0,1,0,448.507,147.9Z" transform="translate(-41.373)" fill="#f29c85"/>
    <g id="グループ_29" data-name="グループ 29" transform="translate(93.251 333.083)">
      <path id="パス_85" data-name="パス 85" d="M100.744,434.28h15.869q7.168,0,10.442,4.22T129,450.265a20.638,20.638,0,0,1-1.84,5.679,18.856,18.856,0,0,1-3.377,4.726,14.614,14.614,0,0,1-5.506,3.685,22.653,22.653,0,0,1-7.712,1.113h-7.081l-1.993,11.3H93.251Zm7.05,6.735-3.135,17.777h5.03q5,0,7.454-2.11t3.32-7.024q.835-4.74-.728-6.692t-6.276-1.951Z" transform="translate(-93.251 -422.977)" fill="#f29c85"/>
      <path id="パス_86" data-name="パス 86" d="M152,418.592h8.18l-1.993,11.3H165.5q6.879,0,9.481,2.7t1.542,8.715l-3.486,19.772h-8.3l3.318-18.818q.565-3.209-.4-4.365t-4.117-1.156h-6.561l-4.292,24.339h-8.18Z" transform="translate(-107.58 -418.592)" fill="#f29c85"/>
      <path id="パス_87" data-name="パス 87" d="M196.616,434.28h15.87q7.168,0,10.442,4.22t1.943,11.765a20.613,20.613,0,0,1-1.839,5.679,18.823,18.823,0,0,1-3.378,4.726,14.612,14.612,0,0,1-5.506,3.685,22.656,22.656,0,0,1-7.712,1.113h-7.081l-1.993,11.3h-8.238Zm7.051,6.735-3.135,17.777h5.03q5,0,7.454-2.11t3.32-7.024q.835-4.74-.728-6.692t-6.275-1.951Z" transform="translate(-120.052 -422.977)" fill="#f29c85"/>
      <path id="パス_88" data-name="パス 88" d="M338.549,449.675a19.022,19.022,0,0,1-6.532,11.721,19.307,19.307,0,0,1-12.811,4.379q-7.574,0-11.308-4.393t-2.445-11.707a19.053,19.053,0,0,1,6.581-11.75,19.416,19.416,0,0,1,12.86-4.408q7.515,0,11.233,4.408T338.549,449.675Zm-24.454,0q-.785,4.451.858,6.937t5.372,2.486a8.6,8.6,0,0,0,6.248-2.486,12.39,12.39,0,0,0,3.334-6.937q.786-4.451-.875-6.923t-5.389-2.471a8.556,8.556,0,0,0-6.233,2.486A12.388,12.388,0,0,0,314.1,449.675Z" transform="translate(-152.478 -422.764)" fill="#f29c85"/>
      <path id="パス_89" data-name="パス 89" d="M358.568,434.28h15.493q7.023,0,9.563,2.644t1.46,8.773L381.6,465.469h-8.238l3.308-18.759q.616-3.5-.284-4.538t-4.167-1.041H365.6l-4.292,24.339h-8.238Z" transform="translate(-165.881 -422.977)" fill="#f29c85"/>
      <path id="パス_90" data-name="パス 90" d="M407.806,436.109H401.88l1.1-6.215H408.9l.566-3.209q.841-4.769,2.9-6.432t7.057-1.662h7.8l-1.06,6.012h-3.9a5.878,5.878,0,0,0-3.12.651,3.031,3.031,0,0,0-1.276,2.153l-.439,2.486h7.8l-1.1,6.215h-7.8l-4.4,24.974H403.4Z" transform="translate(-179.526 -418.592)" fill="#f29c85"/>
      <path id="パス_91" data-name="パス 91" d="M572.487,434.28H587.98q7.024,0,9.564,2.644T599,445.7l-3.486,19.772h-8.238l3.308-18.759q.616-3.5-.284-4.538t-4.167-1.041h-6.62l-4.291,24.339h-8.238Z" transform="translate(-225.68 -422.977)" fill="#f29c85"/>
      <path id="パス_92" data-name="パス 92" d="M632.7,458.791h8.759l-1.177,6.677H629.1a21.609,21.609,0,0,1-6.825-.881,9.51,9.51,0,0,1-4.253-2.848,12.048,12.048,0,0,1-2.477-5.218,16.532,16.532,0,0,1-.079-6.518,21.131,21.131,0,0,1,2.4-6.749,18.359,18.359,0,0,1,4.336-5.246,15.317,15.317,0,0,1,5.315-2.847,24.716,24.716,0,0,1,7.078-.881h11.186l-1.187,6.735h-8.759q-5.81,0-8.361,2.009T624.047,450a10.414,10.414,0,0,0,.06,4.741,5.331,5.331,0,0,0,4.256,3.816A26.671,26.671,0,0,0,632.7,458.791Z" transform="translate(-239.151 -422.977)" fill="#f29c85"/>
      <path id="パス_93" data-name="パス 93" d="M280.167,458.791h8.758l-1.177,6.677H276.561a21.612,21.612,0,0,1-6.825-.881,9.514,9.514,0,0,1-4.253-2.848,12.056,12.056,0,0,1-2.476-5.218,16.52,16.52,0,0,1-.079-6.518,21.114,21.114,0,0,1,2.4-6.749,18.357,18.357,0,0,1,4.336-5.246,15.316,15.316,0,0,1,5.315-2.847,24.718,24.718,0,0,1,7.079-.881h11.186l-1.187,6.735H283.3q-5.81,0-8.361,2.009T271.512,450a10.414,10.414,0,0,0,.06,4.741,5.331,5.331,0,0,0,4.256,3.816A26.681,26.681,0,0,0,280.167,458.791Z" transform="translate(-140.603 -422.977)" fill="#f29c85"/>
      <path id="パス_94" data-name="パス 94" d="M463.053,438.352a10.183,10.183,0,0,0-3.292-2.487,19.168,19.168,0,0,0-7.639-1.105h-4.063a22.065,22.065,0,0,0-9.606,1.9,14.913,14.913,0,0,0-6.769,6.857,23.539,23.539,0,0,0-2.073,6.515c-.9,5.126-.217,8.988,1.969,11.619a9.259,9.259,0,0,0,3.035,2.417c1.963.9,4.674.844,7.945.844h12.024l.308-1.641.839-4.641H444.776c-3.1,0-5.059-.017-5.868-.836s-1.056-1.676-.738-4.189h25.9c.33-1.256.59-2.287.808-3.447C465.834,445.032,465.216,440.992,463.053,438.352Zm-6.691,8.971H439.316c.467-2.513,1.291-3.955,2.472-4.8s3.264-1.478,6.251-1.478h1.735c2.987,0,4.916.631,5.788,1.478S456.7,444.81,456.362,447.323Z" transform="translate(-187.169 -423.112)" fill="#f29c85"/>
      <path id="パス_95" data-name="パス 95" d="M505.123,436.336c-1.1-1.166-3.262-1.576-6.5-1.576H484.778l-5.5,30.153h8.238l4.108-24.235,1.063.128s3.7.321,4.3,1.015.768,2.426.357,4.757l-.134.746h7.862l.917-5.039C506.509,439.375,506.218,437.5,505.123,436.336Z" transform="translate(-201.162 -423.112)" fill="#f29c85"/>
      <path id="パス_96" data-name="パス 96" d="M550.12,438.352a10.191,10.191,0,0,0-3.292-2.487,19.17,19.17,0,0,0-7.64-1.105h-4.063a22.063,22.063,0,0,0-9.606,1.9,14.913,14.913,0,0,0-6.769,6.857,23.514,23.514,0,0,0-2.073,6.515c-.9,5.126-.217,8.988,1.969,11.619a9.251,9.251,0,0,0,3.035,2.417c1.963.9,4.674.844,7.944.844h12.025l.308-1.641.838-4.641H531.843c-3.1,0-5.059-.017-5.868-.836s-1.056-1.676-.739-4.189h25.9c.329-1.256.59-2.287.808-3.447C552.9,445.032,552.283,440.992,550.12,438.352Zm-6.691,8.971H526.382c.468-2.513,1.292-3.955,2.473-4.8s3.264-1.478,6.251-1.478h1.735c2.987,0,4.916.631,5.788,1.478S543.768,444.81,543.429,447.323Z" transform="translate(-211.508 -423.112)" fill="#f29c85"/>
      <path id="パス_97" data-name="パス 97" d="M690.486,438.352a10.19,10.19,0,0,0-3.292-2.487,19.17,19.17,0,0,0-7.64-1.105h-4.063a22.063,22.063,0,0,0-9.606,1.9,14.913,14.913,0,0,0-6.769,6.857,23.514,23.514,0,0,0-2.073,6.515c-.9,5.126-.217,8.988,1.969,11.619a9.251,9.251,0,0,0,3.034,2.417c1.963.9,4.674.844,7.945.844h12.025l.308-1.641.838-4.641H672.209c-3.1,0-5.059-.017-5.868-.836s-1.056-1.676-.739-4.189h25.9c.329-1.256.59-2.287.808-3.447C693.267,445.032,692.649,440.992,690.486,438.352Zm-6.691,8.971H666.748c.468-2.513,1.292-3.955,2.473-4.8s3.264-1.478,6.251-1.478h1.735c2.987,0,4.916.631,5.788,1.478S684.134,444.81,683.8,447.323Z" transform="translate(-250.746 -423.112)" fill="#f29c85"/>
      <g id="グループ_28" data-name="グループ 28" transform="translate(124.911 68.048)">
        <g id="グループ_27" data-name="グループ 27">
          <path id="パス_98" data-name="パス 98" d="M274.12,513.043h8.932l-3.6,20.408,20.335-20.408h10.724L289.8,533.8l13.395,21.737H291.776l-12.49-21.13-3.726,21.13h-8.932Z" transform="translate(-266.628 -513.043)" fill="#f29c85"/>
          <path id="パス_99" data-name="パス 99" d="M324.675,528.731h16.881q6.387,0,9.108,2.934t1.7,8.715l-3.446,19.54H326.778q-4.653,0-6.741-2.341t-1.329-6.648q.938-5.318,4.222-7.631t9.961-2.313h10.839l.138-.78q.49-2.775-.945-3.9t-5.626-1.128H323.538Zm6.562,24.916h10.319l1.136-6.446h-9.712a8.1,8.1,0,0,0-4.127.78,3.791,3.791,0,0,0-1.578,2.718,2.327,2.327,0,0,0,.477,2.3Q328.519,553.647,331.237,553.647Z" transform="translate(-281.13 -517.428)" fill="#f29c85"/>
          <path id="パス_100" data-name="パス 100" d="M374.016,528.731h15.493q7.023,0,9.563,2.645t1.46,8.773l-3.486,19.771h-8.238l3.308-18.759q.616-3.5-.284-4.538t-4.167-1.04h-6.619l-4.292,24.338h-8.238Z" transform="translate(-295.11 -517.428)" fill="#f29c85"/>
          <path id="パス_101" data-name="パス 101" d="M415.989,553.416h17.372a6.8,6.8,0,0,0,3.495-.723,3.2,3.2,0,0,0,1.463-2.312,2.239,2.239,0,0,0-.659-2.327,5.336,5.336,0,0,0-3.223-.738h-7.111q-6.331,0-8.215-1.936T418.1,538.5q.887-5.029,3.994-7.4t8.743-2.37h17.69l-1.147,6.5h-14.54a11.75,11.75,0,0,0-4.735.622,2.885,2.885,0,0,0-1.459,2.211,2.091,2.091,0,0,0,.565,2.125,4.532,4.532,0,0,0,2.843.679h7.457q5.117,0,7.384,2.384t1.473,6.895a12.377,12.377,0,0,1-3.628,7.053,9.334,9.334,0,0,1-6.622,2.717H414.842Z" transform="translate(-308.06 -517.428)" fill="#f29c85"/>
          <path id="パス_102" data-name="パス 102" d="M468.1,528.731h16.881q6.388,0,9.108,2.934t1.7,8.715l-3.446,19.54H470.2q-4.654,0-6.741-2.341t-1.328-6.648q.937-5.318,4.221-7.631t9.961-2.313h10.84l.138-.78q.488-2.775-.945-3.9t-5.626-1.128H466.963Zm6.562,24.916h10.319l1.137-6.446H476.4a8.094,8.094,0,0,0-4.126.78A3.788,3.788,0,0,0,470.7,550.7a2.327,2.327,0,0,0,.476,2.3Q471.945,553.647,474.661,553.647Z" transform="translate(-321.223 -517.428)" fill="#f29c85"/>
          <path id="パス_103" data-name="パス 103" d="M520.633,555.534H511.99l5.5-31.189h8.643Zm6.126-34.744h-8.643l1.366-7.747h8.643Z" transform="translate(-335.217 -513.043)" fill="#f29c85"/>
        </g>
      </g>
    </g>
    <g id="グループ_30" data-name="グループ 30" transform="translate(229.809 480.035)">
      <path id="パス_104" data-name="パス 104" d="M285.039,652.949q1.174-6.654,5.05-9.521t11.711-2.866h5.733q3.888,0,5.628-1.123a5.323,5.323,0,0,0,2.207-3.774q.492-2.795-.793-3.918t-5.29-1.123H288.975l1.285-7.288h24.2a26.039,26.039,0,0,1,4.711.317,7.515,7.515,0,0,1,2.76,1.094,7.643,7.643,0,0,1,3.247,4.292,14.531,14.531,0,0,1,.137,6.741q-1.067,6.05-4.875,9.189t-10.06,3.14H302.37q-3.775,0-5.588,1.383a7.209,7.209,0,0,0-2.4,4.7l-.746,4.235h27.481l-1.28,7.259H282.794Z" transform="translate(-282.794 -622.778)" fill="#f29c85"/>
      <path id="パス_105" data-name="パス 105" d="M359.592,666.046q-10.832,0-15.082-5.3t-2.3-16.391q1.96-11.119,8.1-16.449t16.942-5.329q10.773,0,15.005,5.329t2.27,16.449q-1.956,11.091-8.061,16.391T359.592,666.046Zm1.177-7q6.021,0,9.534-3.586t4.839-11.105q1.33-7.547-.929-11.148t-8.252-3.6q-6.02,0-9.522,3.6t-4.832,11.148q-1.326,7.519.908,11.105T360.769,659.046Z" transform="translate(-299.232 -622.566)" fill="#f29c85"/>
      <path id="パス_106" data-name="パス 106" d="M400.941,652.99q1.175-6.662,5.055-9.532t11.724-2.87h5.739q3.894,0,5.635-1.125a5.325,5.325,0,0,0,2.209-3.778q.493-2.8-.794-3.922t-5.3-1.125H404.882l1.287-7.3h24.225a26.153,26.153,0,0,1,4.717.318,7.521,7.521,0,0,1,2.762,1.1,7.65,7.65,0,0,1,3.251,4.3,14.542,14.542,0,0,1,.137,6.749q-1.068,6.056-4.881,9.2t-10.071,3.143h-8.017q-3.778,0-5.594,1.385a7.218,7.218,0,0,0-2.4,4.7l-.748,4.24h27.513l-1.282,7.267H398.693Z" transform="translate(-315.193 -622.78)" fill="#f29c85"/>
      <path id="パス_107" data-name="パス 107" d="M474.7,666.081q-10.844,0-15.1-5.307t-2.3-16.409q1.963-11.132,8.109-16.468t16.961-5.335q10.785,0,15.022,5.335t2.273,16.468q-1.958,11.1-8.071,16.409T474.7,666.081Zm1.178-7.009q6.027,0,9.545-3.591t4.844-11.117q1.331-7.556-.931-11.161t-8.261-3.6q-6.028,0-9.533,3.6T466.7,644.365q-1.327,7.527.909,11.117T475.876,659.072Z" transform="translate(-331.404 -622.562)" fill="#f29c85"/>
    </g>
  </g>
</svg>
