<svg xmlns="http://www.w3.org/2000/svg" width="35" height="35" viewBox="0 0 35 35">
  <path id="share_twitter-square-brands" d="M31.25,32H3.75A3.751,3.751,0,0,0,0,35.75v27.5A3.751,3.751,0,0,0,3.75,67h27.5A3.751,3.751,0,0,0,35,63.25V35.75A3.751,3.751,0,0,0,31.25,32ZM27.43,44.406c.016.219.016.445.016.664A14.479,14.479,0,0,1,12.867,59.648,14.511,14.511,0,0,1,5,57.352a10.794,10.794,0,0,0,1.234.063,10.273,10.273,0,0,0,6.359-2.187A5.131,5.131,0,0,1,7.8,51.672a5.522,5.522,0,0,0,2.313-.094,5.124,5.124,0,0,1-4.1-5.031v-.062a5.12,5.12,0,0,0,2.313.648,5.113,5.113,0,0,1-2.281-4.266,5.06,5.06,0,0,1,.7-2.586A14.549,14.549,0,0,0,17.3,45.641a5.135,5.135,0,0,1,8.742-4.68,10.04,10.04,0,0,0,3.25-1.234,5.111,5.111,0,0,1-2.25,2.82A10.2,10.2,0,0,0,30,41.75,10.785,10.785,0,0,1,27.43,44.406Z" transform="translate(0 -32)" fill="#f29c85"/>
</svg>
