<svg xmlns="http://www.w3.org/2000/svg" width="77.891" height="62" viewBox="0 0 77.891 62">
  <path id="icon" d="M311.829,124.688a7.322,7.322,0,0,0-6.979,5.128l-40.1-4.228c.015-.158.023-.318.023-.48a5.082,5.082,0,0,0-.406-2l11.219-5.1a3.7,3.7,0,1,0-.137-.328l-11.672,4.4a5.1,5.1,0,1,0,.921,3.9l39.829,6.467q.02.356.073.7c-10.681,1.736-30.753,4.995-43.149,7.007A10.107,10.107,0,1,0,260.4,148.3l17.892,10.442a13.773,13.773,0,1,0,3.126-6.749l-19.967-6a9.817,9.817,0,0,0,.4-2.061l42.868-10.166a7.319,7.319,0,1,0,7.107-9.079Z" transform="translate(-241.254 -112.702)" fill="#f29c85"/>
</svg>
